<svg xmlns="http://www.w3.org/2000/svg" xmlns:xlink="http://www.w3.org/1999/xlink" width="500" zoomAndPan="magnify" viewBox="0 0 375 374.999991" height="500" preserveAspectRatio="xMidYMid meet" version="1.2"><defs><clipPath id="4f368f1aaf"><path d="M 11.207031 11.207031 L 363.792969 11.207031 L 363.792969 363.792969 L 11.207031 363.792969 Z M 11.207031 11.207031 "/></clipPath><clipPath id="3705fb450e"><path d="M 187.5 11.207031 C 90.136719 11.207031 11.207031 90.136719 11.207031 187.5 C 11.207031 284.863281 90.136719 363.792969 187.5 363.792969 C 284.863281 363.792969 363.792969 284.863281 363.792969 187.5 C 363.792969 90.136719 284.863281 11.207031 187.5 11.207031 Z M 187.5 11.207031 "/></clipPath><clipPath id="2369c315fc"><path d="M 177.511719 65.035156 L 207.597656 65.035156 L 207.597656 199.125 L 177.511719 199.125 Z M 177.511719 65.035156 "/></clipPath><clipPath id="81cc7945ac"><path d="M 179.011719 65.035156 L 206.097656 65.035156 C 206.496094 65.035156 206.875 65.191406 207.15625 65.472656 C 207.4375 65.753906 207.597656 66.136719 207.597656 66.535156 L 207.597656 197.523438 C 207.597656 197.921875 207.4375 198.304688 207.15625 198.585938 C 206.875 198.867188 206.496094 199.023438 206.097656 199.023438 L 179.011719 199.023438 C 178.613281 199.023438 178.230469 198.867188 177.949219 198.585938 C 177.667969 198.304688 177.511719 197.921875 177.511719 197.523438 L 177.511719 66.535156 C 177.511719 66.136719 177.667969 65.753906 177.949219 65.472656 C 178.230469 65.191406 178.613281 65.035156 179.011719 65.035156 Z M 179.011719 65.035156 "/></clipPath><clipPath id="1cf3614d1c"><path d="M 116.09375 107 L 207.59375 107 L 207.59375 291.773438 L 116.09375 291.773438 Z M 116.09375 107 "/></clipPath><clipPath id="d85bc6ab6a"><path d="M 206.84375 106.523438 L 116.539062 106.523438 C 116.125 106.523438 115.789062 106.859375 115.789062 107.273438 L 115.789062 290.765625 C 115.789062 291.179688 116.125 291.515625 116.539062 291.515625 L 206.84375 291.515625 C 207.257812 291.515625 207.59375 291.179688 207.59375 290.765625 L 207.59375 107.273438 C 207.59375 106.859375 207.257812 106.523438 206.84375 106.523438 Z M 206.84375 106.523438 "/></clipPath><clipPath id="9bd5be855b"><path d="M 123.363281 122.101562 L 199.863281 122.101562 L 199.863281 275.851562 L 123.363281 275.851562 Z M 123.363281 122.101562 "/></clipPath><clipPath id="f93610f1c1"><path d="M 199.113281 122.101562 L 124.265625 122.101562 C 123.851562 122.101562 123.515625 122.4375 123.515625 122.851562 L 123.515625 275.203125 C 123.515625 275.617188 123.851562 275.953125 124.265625 275.953125 L 199.113281 275.953125 C 199.527344 275.953125 199.863281 275.617188 199.863281 275.203125 L 199.863281 122.851562 C 199.863281 122.4375 199.527344 122.101562 199.113281 122.101562 Z M 199.113281 122.101562 "/></clipPath><clipPath id="acdd379523"><path d="M 186.171875 75.929688 L 199.871094 75.929688 L 199.871094 132.054688 L 186.171875 132.054688 Z M 186.171875 75.929688 "/></clipPath><clipPath id="81d2bbe30e"><path d="M 187.671875 75.929688 L 198.371094 75.929688 C 198.769531 75.929688 199.148438 76.085938 199.429688 76.367188 C 199.710938 76.648438 199.871094 77.03125 199.871094 77.429688 L 199.871094 130.527344 C 199.871094 130.925781 199.710938 131.308594 199.429688 131.589844 C 199.148438 131.871094 198.769531 132.027344 198.371094 132.027344 L 187.671875 132.027344 C 187.273438 132.027344 186.894531 131.871094 186.613281 131.589844 C 186.332031 131.308594 186.171875 130.925781 186.171875 130.527344 L 186.171875 77.429688 C 186.171875 77.03125 186.332031 76.648438 186.613281 76.367188 C 186.894531 76.085938 187.273438 75.929688 187.671875 75.929688 Z M 187.671875 75.929688 "/></clipPath><clipPath id="b89dcdb20e"><path d="M 116.984375 188.335938 L 206.949219 188.335938 L 206.949219 278.300781 L 116.984375 278.300781 Z M 116.984375 188.335938 "/></clipPath><clipPath id="c77c9817fa"><path d="M 116.949219 189.050781 L 116.949219 277.597656 C 116.949219 278.011719 117.285156 278.347656 117.699219 278.347656 L 206.246094 278.347656 C 206.660156 278.347656 206.996094 278.011719 206.996094 277.597656 L 206.996094 189.050781 C 206.996094 188.636719 206.660156 188.300781 206.246094 188.300781 L 117.699219 188.300781 C 117.285156 188.300781 116.949219 188.636719 116.949219 189.050781 Z M 116.949219 189.050781 "/></clipPath><clipPath id="c8428efbfb"><path d="M 156 188 L 259 188 L 259 291 L 156 291 Z M 156 188 "/></clipPath><clipPath id="082d85cd79"><path d="M 155.984375 239.828125 L 207.515625 188.300781 L 259.242188 240.03125 L 207.714844 291.558594 Z M 155.984375 239.828125 "/></clipPath><clipPath id="4b2a046700"><path d="M 157.046875 238.765625 L 206.453125 189.359375 C 206.734375 189.078125 207.117188 188.921875 207.515625 188.921875 C 207.914062 188.921875 208.292969 189.078125 208.574219 189.359375 L 258.144531 238.929688 C 258.425781 239.210938 258.582031 239.59375 258.582031 239.992188 C 258.582031 240.386719 258.425781 240.769531 258.144531 241.050781 L 208.738281 290.457031 C 208.457031 290.738281 208.074219 290.898438 207.675781 290.898438 C 207.277344 290.898438 206.898438 290.738281 206.617188 290.457031 L 157.046875 240.890625 C 156.765625 240.605469 156.605469 240.226562 156.605469 239.828125 C 156.605469 239.429688 156.765625 239.046875 157.046875 238.765625 Z M 157.046875 238.765625 "/></clipPath></defs><g id="b4bddf0fe5"><g clip-rule="nonzero" clip-path="url(#4f368f1aaf)"><g clip-rule="nonzero" clip-path="url(#3705fb450e)"><path style=" stroke:none;fill-rule:nonzero;fill:#ffffff;fill-opacity:1;" d="M 11.207031 11.207031 L 363.792969 11.207031 L 363.792969 363.792969 L 11.207031 363.792969 Z M 11.207031 11.207031 "/></g></g><g clip-rule="nonzero" clip-path="url(#2369c315fc)"><g clip-rule="nonzero" clip-path="url(#81cc7945ac)"><path style=" stroke:none;fill-rule:nonzero;fill:#1d1e1d;fill-opacity:1;" d="M 177.511719 65.035156 L 207.597656 65.035156 L 207.597656 199.007812 L 177.511719 199.007812 Z M 177.511719 65.035156 "/></g></g><g clip-rule="nonzero" clip-path="url(#1cf3614d1c)"><g clip-rule="nonzero" clip-path="url(#d85bc6ab6a)"><path style=" stroke:none;fill-rule:nonzero;fill:#000000;fill-opacity:1;" d="M 207.59375 107.226562 C 157.027344 107.226562 116.09375 148.351562 116.09375 199.148438 C 116.09375 249.945312 157.027344 291.070312 207.59375 291.070312 Z M 207.59375 107.226562 "/></g></g><g clip-rule="nonzero" clip-path="url(#9bd5be855b)"><g clip-rule="nonzero" clip-path="url(#f93610f1c1)"><path style=" stroke:none;fill-rule:nonzero;fill:#ffffff;fill-opacity:1;" d="M 199.863281 122.675781 C 157.699219 122.675781 123.5625 156.808594 123.5625 198.976562 C 123.5625 241.144531 157.699219 275.277344 199.863281 275.277344 Z M 199.863281 122.675781 "/></g></g><g clip-rule="nonzero" clip-path="url(#acdd379523)"><g clip-rule="nonzero" clip-path="url(#81d2bbe30e)"><path style=" stroke:none;fill-rule:nonzero;fill:#ffffff;fill-opacity:1;" d="M 186.171875 75.929688 L 199.871094 75.929688 L 199.871094 132.054688 L 186.171875 132.054688 Z M 186.171875 75.929688 "/></g></g><g clip-rule="nonzero" clip-path="url(#b89dcdb20e)"><g clip-rule="nonzero" clip-path="url(#c77c9817fa)"><path style=" stroke:none;fill-rule:nonzero;fill:#000000;fill-opacity:1;" d="M 206.984375 278.335938 L 206.984375 188.335938 L 116.984375 188.335938 C 116.984375 238.042969 157.28125 278.335938 206.984375 278.335938 Z M 206.984375 278.335938 "/></g></g><g clip-rule="nonzero" clip-path="url(#c8428efbfb)"><g clip-rule="nonzero" clip-path="url(#082d85cd79)"><g clip-rule="nonzero" clip-path="url(#4b2a046700)"><path style=" stroke:none;fill-rule:nonzero;fill:#de3e1f;fill-opacity:1;" d="M 155.984375 239.828125 L 207.515625 188.300781 L 259.242188 240.03125 L 207.714844 291.558594 Z M 155.984375 239.828125 "/></g></g></g></g></svg>